<?xml version="1.0" encoding="UTF-8"?>
<svg xmlns="http://www.w3.org/2000/svg" version="1.1" xmlns:serif="http://www.serif.com/" viewBox="0 0 1000 1000">
  <!-- Generator: Adobe Illustrator 29.8.3, SVG Export Plug-In . SVG Version: 2.1.1 Build 3)  -->
  <defs>
    <style>
      .st0 {
        fill: #fff;
      }

      .st1 {
        fill: #f56733;
      }
    </style>
  </defs>
  <g id="Layer_2">
    <circle class="st1" cx="501.27" cy="500" r="320"/>
  </g>
  <g id="Layer_1">
    <path class="st0" d="M305.83,533.31c.6,10.15,1.56,20.34,3.35,30.48.55,3.56,1.27,7.1,2.03,10.62.76,3.52,1.52,7.05,2.51,10.52.95,3.78,2.11,7.49,3.33,11.19,1.21,3.7,2.52,7.37,4.53,12.04s4.71,10.34,7.64,15.89c2.93,5.56,6.09,11,11.59,18.67,5.5,7.67,13.33,17.58,22.21,26.45,8.87,8.87,18.78,16.7,26.46,22.19,7.68,5.49,13.12,8.65,18.68,11.59,5.56,2.94,11.17,5.77,17,8.1,2.15.99,4.4,1.76,6.63,2.57,6,2.22,12.06,3.97,18.18,5.51,3.84.97,7.71,1.84,11.98,2.67,4.27.83,8.94,1.62,13.63,2.29,8.54,1.22,17.16,2.05,25.75,2.33,10.89-.39,21.82-1.57,32.71-3.43,3.57-.55,7.11-1.27,10.63-2.03,3.53-.76,7.06-1.52,10.53-2.51,3.78-.95,7.5-2.11,11.21-3.33s7.38-2.52,12.06-4.53c4.67-2,10.35-4.7,15.91-7.63,5.56-2.93,11-6.09,18.68-11.58,7.68-5.49,17.59-13.32,26.46-22.19,8.87-8.87,16.71-18.77,22.2-26.45,5.5-7.67,8.66-13.12,11.59-18.67,2.94-5.55,5.77-11.17,8.1-16.99.99-2.15,1.76-4.4,2.57-6.62,2.22-5.99,3.97-12.04,5.51-18.16.97-3.84,1.84-7.7,2.67-11.97.83-4.27,1.62-8.93,2.29-13.61,1.03-7.24,1.79-14.54,2.17-21.83.16-1.17.29-2.33.32-3.5,0-45.59.02-91.18-.02-136.76-.16-2.67-.57-5.37-1.45-8.05-.15-.49-.31-.97-.76-1.94s-1.19-2.44-2.1-3.8c-.9-1.36-1.96-2.62-3.12-3.77-1.16-1.16-2.41-2.22-3.77-3.12-1.36-.9-2.82-1.65-3.84-2.12s-1.61-.65-2.19-.83c-.58-.18-1.17-.35-1.98-.54-1.86-.41-4.41-.88-6.66-.81-2.67.16-5.39.57-8.06,1.45-.49.15-.97.31-1.95.76-.98.45-2.45,1.19-3.82,2.09-1.36.91-2.61,1.99-3.51,2.83-.9.85-1.44,1.46-1.96,2.1-1.09,1.32-2.02,2.67-2.77,4.06-.74,1.37-1.31,2.71-1.69,3.93-.19.58-.36,1.17-.55,1.98-.4,1.73-.79,4.11-.85,6.21,0,45.59-.02,91.18.02,136.76.03.58.1,1.17.04,1.75-.47,7.24-1.16,14.5-2.44,21.73-.86,5.21-1.94,10.44-3.36,15.65-.7,2.8-1.57,5.55-2.46,8.29s-1.87,5.46-3.35,8.92c-1.49,3.46-3.49,7.66-5.66,11.77-2.17,4.11-4.51,8.14-8.58,13.82-4.07,5.68-9.87,13.02-16.45,19.58-6.57,6.56-13.91,12.36-19.6,16.43-5.69,4.07-9.72,6.4-13.83,8.58-4.11,2.17-8.27,4.27-12.59,6-1.6.73-3.26,1.3-4.91,1.9-4.45,1.65-8.93,2.94-13.47,4.08-2.85.72-5.71,1.36-8.88,1.98-6.42,1.24-13.65,2.31-20.55,2.89-3.27.29-6.54.55-9.81.49-7.68-.35-15.37-1.18-23.04-2.5-5.22-.86-10.46-1.94-15.68-3.36-2.8-.7-5.56-1.57-8.3-2.46-2.74-.9-5.47-1.87-8.93-3.35-3.46-1.48-7.66-3.48-11.78-5.65-4.12-2.17-8.15-4.51-13.83-8.58-5.69-4.07-13.02-9.86-19.6-16.43-6.57-6.57-12.37-13.9-16.44-19.58-4.07-5.68-6.41-9.71-8.59-13.82-2.18-4.11-4.28-8.27-6-12.58-.73-1.59-1.3-3.26-1.9-4.9-1.65-4.44-2.94-8.92-4.08-13.44-.72-2.84-1.36-5.7-1.98-8.86-1.24-6.41-2.31-13.63-2.89-20.51-.24-2.48-.37-4.96-.49-7.44.05-.57.09-1.15.12-1.72v-184.08c0-1.18-.16-2.36-.34-3.53-.18-1.17-.43-2.32-.63-3.15-.2-.82-.36-1.31-.52-1.79s-.31-.97-.77-1.95c-.45-.98-1.21-2.45-2.12-3.82-.91-1.37-1.98-2.63-3.15-3.8s-2.43-2.24-3.8-3.15c-1.37-.91-2.84-1.67-3.87-2.14-1.03-.47-1.61-.66-2.2-.84-.59-.18-1.17-.36-2-.55-.82-.19-1.89-.4-2.96-.55-1.23-.18-2.47-.37-3.71-.28-1.11.04-2.22.17-3.32.35-1.1.18-2.19.41-2.97.61-.79.2-1.27.35-1.75.51s-.97.31-1.94.77c-.97.45-2.44,1.21-3.8,2.12-1.36.91-2.61,1.98-3.77,3.15s-2.22,2.43-3.12,3.8c-.9,1.37-1.65,2.84-2.12,3.86-.47,1.03-.65,1.61-.83,2.2s-.35,1.17-.54,2c-.38,1.71-.8,4.09-.83,6.18v184.08c.04.95.12,1.91.24,2.86Z"/>
    <path class="st0" d="M449.11,446.35c-.13-2.8-.54-5.64-1.47-8.44-.15-.49-.31-.97-.76-1.94-.45-.97-1.19-2.44-2.1-3.8-.9-1.36-1.96-2.62-3.12-3.77s-2.41-2.22-3.77-3.12c-1.36-.9-2.82-1.65-3.84-2.12-1.02-.47-1.61-.65-2.19-.83-.58-.18-1.17-.35-1.98-.54-1.86-.41-4.41-.88-6.66-.81-2.67.16-5.37.57-8.05,1.45-.49.15-.97.31-1.94.76-.97.45-2.44,1.19-3.8,2.1s-2.62,1.96-3.77,3.12c-1.16,1.16-2.22,2.41-3.12,3.77-.9,1.36-1.65,2.82-2.12,3.84-.47,1.02-.65,1.61-.83,2.19-.18.58-.35,1.17-.54,1.98-.4,1.73-.78,4.11-.83,6.21,0,39.83-.02,79.66.02,119.48.16,2.67.57,5.37,1.45,8.05.15.49.31.97.76,1.94.45.97,1.19,2.44,2.1,3.8.9,1.36,1.96,2.62,3.12,3.77,1.16,1.16,2.41,2.22,3.77,3.12,1.36.9,2.82,1.65,3.84,2.12s1.61.65,2.19.83c.58.18,1.17.35,1.98.54,1.86.41,4.41.88,6.66.81,2.67-.16,5.37-.57,8.05-1.45.49-.15.97-.31,1.94-.76.97-.45,2.44-1.19,3.8-2.1,1.36-.9,2.62-1.96,3.77-3.12,1.16-1.16,2.22-2.41,3.12-3.77s1.65-2.82,2.12-3.84c.47-1.02.65-1.61.83-2.19.18-.58.35-1.17.54-1.98.4-1.73.78-4.11.83-6.21v-119.09Z"/>
    <path class="st0" d="M526.71,446.35c-.13-2.8-.54-5.64-1.47-8.44-.15-.49-.31-.97-.76-1.94-.45-.97-1.19-2.44-2.1-3.8-.9-1.36-1.96-2.62-3.12-3.77-1.16-1.16-2.41-2.22-3.77-3.12-1.36-.9-2.82-1.65-3.84-2.12-1.02-.47-1.61-.65-2.19-.83-.58-.18-1.17-.35-1.98-.54-1.86-.41-4.41-.88-6.66-.81-2.67.16-5.37.57-8.05,1.45-.49.15-.97.31-1.94.76-.97.45-2.44,1.19-3.8,2.1s-2.62,1.96-3.77,3.12c-1.16,1.16-2.22,2.41-3.12,3.77-.9,1.36-1.65,2.82-2.12,3.84-.47,1.02-.65,1.61-.83,2.19s-.35,1.17-.54,1.98c-.4,1.73-.78,4.11-.83,6.21,0,39.83-.02,79.66.02,119.48.16,2.67.57,5.37,1.45,8.05.15.49.31.97.76,1.94.45.97,1.19,2.44,2.1,3.8.9,1.36,1.96,2.62,3.12,3.77,1.16,1.16,2.41,2.22,3.77,3.12,1.36.9,2.82,1.65,3.84,2.12,1.02.47,1.61.65,2.19.83.58.18,1.17.35,1.98.54,1.86.41,4.41.88,6.66.81,2.67-.16,5.37-.57,8.05-1.45.49-.15.97-.31,1.94-.76.97-.45,2.44-1.19,3.8-2.1,1.36-.9,2.62-1.96,3.77-3.12,1.16-1.16,2.22-2.41,3.12-3.77.9-1.36,1.65-2.82,2.12-3.84.47-1.02.65-1.61.83-2.19.18-.58.35-1.17.54-1.98.4-1.73.78-4.11.83-6.21v-119.09Z"/>
    <path class="st0" d="M604.31,446.35c-.13-2.8-.54-5.64-1.47-8.44-.15-.49-.31-.97-.76-1.94-.45-.97-1.19-2.44-2.1-3.8-.9-1.36-1.96-2.62-3.12-3.77-1.16-1.16-2.41-2.22-3.77-3.12-1.36-.9-2.82-1.65-3.84-2.12-1.02-.47-1.61-.65-2.19-.83-.58-.18-1.17-.35-1.98-.54-1.86-.41-4.41-.88-6.66-.81-2.67.16-5.37.57-8.05,1.45-.49.15-.97.31-1.94.76-.97.45-2.44,1.19-3.8,2.1s-2.62,1.96-3.77,3.12c-1.16,1.16-2.22,2.41-3.12,3.77-.9,1.36-1.65,2.82-2.12,3.84-.47,1.02-.65,1.61-.83,2.19-.18.58-.35,1.17-.54,1.98-.4,1.73-.78,4.11-.83,6.21,0,39.83-.02,79.66.02,119.48.16,2.67.57,5.37,1.45,8.05.15.49.31.97.76,1.94.45.97,1.19,2.44,2.1,3.8.9,1.36,1.96,2.62,3.12,3.77,1.16,1.16,2.41,2.22,3.77,3.12,1.36.9,2.82,1.65,3.84,2.12s1.61.65,2.19.83c.58.18,1.17.35,1.98.54,1.86.41,4.41.88,6.66.81,2.67-.16,5.37-.57,8.05-1.45.49-.15.97-.31,1.94-.76.97-.45,2.44-1.19,3.8-2.1,1.36-.9,2.62-1.96,3.77-3.12,1.16-1.16,2.22-2.41,3.12-3.77.9-1.36,1.65-2.82,2.12-3.84.47-1.02.65-1.61.83-2.19.18-.58.35-1.17.54-1.98.4-1.73.78-4.11.83-6.21v-119.09Z"/>
  </g>
</svg>